<mxfile host="app.diagrams.net" modified="2021-05-24T05:54:01.937Z" agent="5.0 (Windows NT 10.0; Win64; x64) AppleWebKit/537.36 (KHTML, like Gecko) Chrome/90.0.4430.212 Safari/537.36" etag="692xDIE8pVlwALGLkG5J" version="14.7.0" type="github">
  <diagram name="Page-1" id="822b0af5-4adb-64df-f703-e8dfc1f81529">
    <mxGraphModel dx="1038" dy="556" grid="1" gridSize="10" guides="1" tooltips="1" connect="1" arrows="1" fold="1" page="1" pageScale="1" pageWidth="1100" pageHeight="850" background="none" math="0" shadow="0">
      <root>
        <mxCell id="0" />
        <mxCell id="1" parent="0" />
        <mxCell id="dWlxhuMHz1cYpk0b0Hpj-11" style="rounded=0;orthogonalLoop=1;jettySize=auto;html=1;" edge="1" parent="1" source="dWlxhuMHz1cYpk0b0Hpj-1" target="dWlxhuMHz1cYpk0b0Hpj-5">
          <mxGeometry relative="1" as="geometry" />
        </mxCell>
        <mxCell id="dWlxhuMHz1cYpk0b0Hpj-12" style="rounded=0;orthogonalLoop=1;jettySize=auto;html=1;" edge="1" parent="1" source="dWlxhuMHz1cYpk0b0Hpj-1" target="dWlxhuMHz1cYpk0b0Hpj-2">
          <mxGeometry relative="1" as="geometry" />
        </mxCell>
        <mxCell id="dWlxhuMHz1cYpk0b0Hpj-37" style="edgeStyle=none;rounded=0;orthogonalLoop=1;jettySize=auto;html=1;" edge="1" parent="1" source="dWlxhuMHz1cYpk0b0Hpj-1" target="dWlxhuMHz1cYpk0b0Hpj-34">
          <mxGeometry relative="1" as="geometry" />
        </mxCell>
        <mxCell id="dWlxhuMHz1cYpk0b0Hpj-1" value="" style="verticalLabelPosition=bottom;aspect=fixed;html=1;verticalAlign=top;strokeColor=none;align=center;outlineConnect=0;shape=mxgraph.citrix.cloud;" vertex="1" parent="1">
          <mxGeometry x="280" y="208" width="95" height="62" as="geometry" />
        </mxCell>
        <mxCell id="dWlxhuMHz1cYpk0b0Hpj-2" value="" style="verticalLabelPosition=bottom;aspect=fixed;html=1;verticalAlign=top;strokeColor=none;align=center;outlineConnect=0;shape=mxgraph.citrix.database;" vertex="1" parent="1">
          <mxGeometry x="394.25" y="400" width="42.5" height="50" as="geometry" />
        </mxCell>
        <mxCell id="dWlxhuMHz1cYpk0b0Hpj-7" style="rounded=0;orthogonalLoop=1;jettySize=auto;html=1;" edge="1" parent="1" source="dWlxhuMHz1cYpk0b0Hpj-4" target="dWlxhuMHz1cYpk0b0Hpj-1">
          <mxGeometry relative="1" as="geometry" />
        </mxCell>
        <mxCell id="dWlxhuMHz1cYpk0b0Hpj-4" value="" style="verticalLabelPosition=bottom;aspect=fixed;html=1;verticalAlign=top;strokeColor=none;align=center;outlineConnect=0;shape=mxgraph.citrix.cell_phone;" vertex="1" parent="1">
          <mxGeometry x="100" y="270" width="25" height="60" as="geometry" />
        </mxCell>
        <mxCell id="dWlxhuMHz1cYpk0b0Hpj-5" value="" style="verticalLabelPosition=bottom;aspect=fixed;html=1;verticalAlign=top;strokeColor=none;align=center;outlineConnect=0;shape=mxgraph.citrix.cache_server;" vertex="1" parent="1">
          <mxGeometry x="374.5" y="50" width="71" height="97.5" as="geometry" />
        </mxCell>
        <mxCell id="dWlxhuMHz1cYpk0b0Hpj-6" value="&lt;span&gt;Redis 数据库&lt;/span&gt;" style="text;html=1;align=center;verticalAlign=middle;resizable=0;points=[];autosize=1;strokeColor=#6c8ebf;fillColor=#dae8fc;opacity=0;fontStyle=0" vertex="1" parent="1">
          <mxGeometry x="365" y="30" width="90" height="20" as="geometry" />
        </mxCell>
        <mxCell id="dWlxhuMHz1cYpk0b0Hpj-8" value="&lt;span&gt;MYSQL 数据库&lt;/span&gt;" style="text;html=1;align=center;verticalAlign=middle;resizable=0;points=[];autosize=1;strokeColor=#6c8ebf;fillColor=#dae8fc;opacity=0;fontStyle=0" vertex="1" parent="1">
          <mxGeometry x="365" y="450" width="100" height="20" as="geometry" />
        </mxCell>
        <mxCell id="dWlxhuMHz1cYpk0b0Hpj-22" style="edgeStyle=none;rounded=0;orthogonalLoop=1;jettySize=auto;html=1;" edge="1" parent="1" source="dWlxhuMHz1cYpk0b0Hpj-14" target="dWlxhuMHz1cYpk0b0Hpj-17">
          <mxGeometry relative="1" as="geometry" />
        </mxCell>
        <mxCell id="dWlxhuMHz1cYpk0b0Hpj-14" value="Alibaba ECS服务器" style="text;html=1;align=center;verticalAlign=middle;resizable=0;points=[];autosize=1;strokeColor=#6c8ebf;fillColor=#dae8fc;opacity=10;fontStyle=0" vertex="1" parent="1">
          <mxGeometry x="267.5" y="229" width="120" height="20" as="geometry" />
        </mxCell>
        <mxCell id="dWlxhuMHz1cYpk0b0Hpj-16" value="" style="verticalLabelPosition=bottom;aspect=fixed;html=1;verticalAlign=top;strokeColor=none;align=center;outlineConnect=0;shape=mxgraph.citrix.web_server;" vertex="1" parent="1">
          <mxGeometry x="830" y="196.06" width="76.5" height="90" as="geometry" />
        </mxCell>
        <mxCell id="dWlxhuMHz1cYpk0b0Hpj-20" style="edgeStyle=none;rounded=0;orthogonalLoop=1;jettySize=auto;html=1;" edge="1" parent="1" source="dWlxhuMHz1cYpk0b0Hpj-17" target="dWlxhuMHz1cYpk0b0Hpj-16">
          <mxGeometry relative="1" as="geometry" />
        </mxCell>
        <mxCell id="dWlxhuMHz1cYpk0b0Hpj-17" value="" style="verticalLabelPosition=bottom;aspect=fixed;html=1;verticalAlign=top;strokeColor=#6c8ebf;align=center;outlineConnect=0;shape=mxgraph.citrix.proxy_server;fillColor=#dae8fc;" vertex="1" parent="1">
          <mxGeometry x="643.25" y="191.94" width="80" height="94.12" as="geometry" />
        </mxCell>
        <mxCell id="dWlxhuMHz1cYpk0b0Hpj-18" value="&lt;span&gt;Nginx反向代理服务器&lt;/span&gt;" style="text;html=1;align=center;verticalAlign=middle;resizable=0;points=[];autosize=1;strokeColor=none;fontStyle=0" vertex="1" parent="1">
          <mxGeometry x="620" y="176.06" width="130" height="20" as="geometry" />
        </mxCell>
        <mxCell id="dWlxhuMHz1cYpk0b0Hpj-25" value="院内前置机" style="text;html=1;align=center;verticalAlign=middle;resizable=0;points=[];autosize=1;strokeColor=none;fontStyle=0" vertex="1" parent="1">
          <mxGeometry x="826.5" y="176.06" width="80" height="20" as="geometry" />
        </mxCell>
        <mxCell id="dWlxhuMHz1cYpk0b0Hpj-28" value="" style="endArrow=none;dashed=1;html=1;dashPattern=1 3;strokeWidth=2;" edge="1" parent="1">
          <mxGeometry width="50" height="50" relative="1" as="geometry">
            <mxPoint x="560" y="500" as="sourcePoint" />
            <mxPoint x="560" y="10" as="targetPoint" />
          </mxGeometry>
        </mxCell>
        <mxCell id="dWlxhuMHz1cYpk0b0Hpj-29" value="&lt;font style=&quot;font-size: 24px&quot;&gt;院内网络&lt;/font&gt;" style="text;html=1;align=center;verticalAlign=middle;resizable=0;points=[];autosize=1;strokeColor=none;fontStyle=0" vertex="1" parent="1">
          <mxGeometry x="710" y="380" width="110" height="20" as="geometry" />
        </mxCell>
        <mxCell id="dWlxhuMHz1cYpk0b0Hpj-30" value="&lt;div style=&quot;text-align: center&quot;&gt;&lt;span style=&quot;font-size: 24px&quot;&gt;&lt;font face=&quot;helvetica&quot;&gt;公有云网络&lt;/font&gt;&lt;/span&gt;&lt;/div&gt;" style="text;whiteSpace=wrap;html=1;" vertex="1" parent="1">
          <mxGeometry x="160" y="380" width="130" height="30" as="geometry" />
        </mxCell>
        <mxCell id="dWlxhuMHz1cYpk0b0Hpj-31" value="" style="verticalLabelPosition=bottom;aspect=fixed;html=1;verticalAlign=top;strokeColor=none;align=center;outlineConnect=0;shape=mxgraph.citrix.cloud;opacity=0;" vertex="1" parent="1">
          <mxGeometry x="160" y="86" width="95" height="62" as="geometry" />
        </mxCell>
        <mxCell id="dWlxhuMHz1cYpk0b0Hpj-33" value="" style="verticalLabelPosition=bottom;aspect=fixed;html=1;verticalAlign=top;strokeColor=none;align=center;outlineConnect=0;shape=mxgraph.citrix.cloud;opacity=0;" vertex="1" parent="1">
          <mxGeometry x="410" y="220" width="95" height="62" as="geometry" />
        </mxCell>
        <mxCell id="dWlxhuMHz1cYpk0b0Hpj-34" value="" style="verticalLabelPosition=bottom;aspect=fixed;html=1;verticalAlign=top;strokeColor=none;align=center;outlineConnect=0;shape=mxgraph.citrix.cloud;" vertex="1" parent="1">
          <mxGeometry x="125" y="85.5" width="95" height="62" as="geometry" />
        </mxCell>
        <mxCell id="dWlxhuMHz1cYpk0b0Hpj-35" value="七牛云存储服务" style="text;html=1;align=center;verticalAlign=middle;resizable=0;points=[];autosize=1;strokeColor=none;" vertex="1" parent="1">
          <mxGeometry x="122.5" y="106.5" width="100" height="20" as="geometry" />
        </mxCell>
        <mxCell id="dWlxhuMHz1cYpk0b0Hpj-38" value="用户" style="text;html=1;align=center;verticalAlign=middle;resizable=0;points=[];autosize=1;strokeColor=none;" vertex="1" parent="1">
          <mxGeometry x="92.5" y="340" width="40" height="20" as="geometry" />
        </mxCell>
      </root>
    </mxGraphModel>
  </diagram>
</mxfile>
